#!OML:ASF F:\VICON\USERDATA\INSTALL\rory3\rory3.ASF
:FULLY-SPECIFIED
:DEGREES
112
root 6.58781 16.0386 -35.1397 25.5027 -18.0878 -2.77415
lowerback -20.5585 1.03144 -3.64115
upperback -7.6292 2.03374 -1.40489
thorax 3.13866 1.00346 1.0287
lowerneck -15.2234 -2.4482 -1.23424
upperneck 41.398 -6.14926 5.47046
head 18.3718 -2.02116 1.56433
rclavicle 7.3395e-015 -1.74931e-014
rhumerus -43.8151 -10.0602 -77.5334
rradius 12.3041
rwrist 13.2121
rhand 1.78934 13.4619
rfingers 7.12502
rthumb 27.3031 -14.5811
lclavicle 7.3395e-015 -1.74931e-014
lhumerus -48.6668 20.828 63.471
lradius 21.353
lwrist -8.03265
lhand -0.0841481 15.8526
lfingers 7.12502
lthumb 25.5098 44.1649
rfemur -28.0518 -20.978 30.9127
rtibia 60.7651
rfoot 9.40182 -34.8565
rtoes -40.7132
lfemur -41.2902 -4.73205 -26.3847
ltibia 41.3573
lfoot -45.5851 27.3189
ltoes 1.19024
113
root 6.57798 16.0429 -35.1859 25.6764 -17.7154 -2.29425
lowerback -20.2665 0.737066 -4.33721
upperback -7.79997 1.7616 -1.4225
thorax 2.79064 0.887347 1.3336
lowerneck -15.6809 -2.41029 -1.20699
upperneck 41.659 -6.06638 5.33459
head 18.6428 -1.98758 1.51444
rclavicle 1.76049e-014 1.19271e-014
rhumerus -43.6804 -9.93853 -77.673
rradius 12.3718
rwrist 13.0269
rhand 1.96486 13.5228
rfingers 7.12502
rthumb 27.471 -14.4937
lclavicle 1.76049e-014 1.19271e-014
lhumerus -48.4398 20.3362 64.1353
lradius 21.5551
lwrist -7.39967
lhand -0.381191 15.5537
lfingers 7.12502
lthumb 25.2252 43.9064
rfemur -29.0543 -21.2333 31.1965
rtibia 60.8952
rfoot 11.6874 -34.6323
rtoes -41.179
lfemur -41.8937 -3.42028 -27.1487
ltibia 41.4172
lfoot -43.6517 26.9481
ltoes -0.861383
114
root 6.58756 16.0298 -35.1633 24.9827 -18.3808 -2.54442
lowerback -19.9213 1.07966 -4.00638
upperback -7.51003 2.14449 -1.45491
thorax 2.92252 1.06707 1.1917
lowerneck -15.4961 -2.48632 -1.43538
upperneck 41.388 -6.12775 5.4581
head 18.4458 -2.0392 1.59649
rclavicle -7.68427e-015 -1.74931e-014
rhumerus -43.5414 -9.61832 -77.923
rradius 12.4126
rwrist 12.6632
rhand 2.03602 13.4779
rfingers 7.12502
rthumb 27.539 -14.5278
lclavicle -7.68427e-015 -1.74931e-014
lhumerus -48.1896 19.9898 64.6447
lradius 21.7523
lwrist -7.11209
lhand -0.476862 15.6636
lfingers 7.12502
lthumb 25.1335 44.0292
rfemur -28.3509 -21.0508 30.8607
rtibia 60.863
rfoot 14.1595 -33.6607
rtoes -41.676
lfemur -40.9917 -3.65937 -27.0038
ltibia 41.5233
lfoot -44.8395 27.2105
ltoes -0.298651
115
root 6.58669 16.0237 -35.1703 24.864 -18.5574 -2.43994
lowerback -19.8955 1.01622 -4.08904
upperback -7.67737 2.06318 -1.39848
thorax 2.72719 1.03327 1.27696
lowerneck -14.7002 -2.4052 -1.7516
upperneck 41.2871 -5.89307 5.49671
head 18.1645 -2.01218 1.72189
rclavicle -1.06008e-014 2.38542e-015
rhumerus -43.793 -9.18099 -77.942
rradius 12.42
rwrist 12.7157
rhand 2.01282 13.5512
rfingers 7.12502
rthumb 27.5168 -14.458
lclavicle -1.06008e-014 2.38542e-015
lhumerus -48.6746 19.7147 64.8763
lradius 22.2745
lwrist -6.90411
lhand -0.218238 16.2954
lfingers 7.12502
lthumb 25.3813 44.626
rfemur -28.6211 -20.8529 30.8258
rtibia 60.952
rfoot 16.3773 -33.0214
rtoes -41.9322
lfemur -40.9244 -3.88448 -27.064
ltibia 41.5451
lfoot -45.0995 27.3697
ltoes -0.15796
116
root 6.58958 16.0163 -35.1748 24.7524 -18.6962 -2.29466
lowerback -19.8401 1.07123 -4.18984
upperback -7.64912 2.15559 -1.47513
thorax 2.72331 1.07944 1.27113
lowerneck -14.8939 -2.46139 -1.77579
upperneck 41.3727 -5.96171 5.45292
head 18.2719 -2.044 1.69308
rclavicle 7.04288e-015 1.11319e-014
rhumerus -43.6431 -9.66182 -77.6401
rradius 12.2569
rwrist 13.2053
rhand 2.086 13.9214
rfingers 7.12502
rthumb 27.5868 -14.0767
lclavicle 7.04288e-015 1.11319e-014
lhumerus -48.4688 19.3401 65.3675
lradius 22.6525
lwrist -6.58823
lhand -0.174932 16.3919
lfingers 7.12502
lthumb 25.4228 44.7166
rfemur -28.8689 -20.7926 30.714
rtibia 61.0233
rfoot 18.5423 -32.1025
rtoes -42.2532
lfemur -40.8676 -3.78929 -27.3085
ltibia 41.5864
lfoot -45.0415 27.5027
ltoes -0.305803
